<?xml version="1.0" standalone="no"?>
<!DOCTYPE svg PUBLIC "-//W3C//DTD SVG 20010904//EN"
 "http://www.w3.org/TR/2001/REC-SVG-20010904/DTD/svg10.dtd">
<svg version="1.0" xmlns="http://www.w3.org/2000/svg"
 width="480.000000pt" height="480.000000pt" viewBox="0 0 480.000000 480.000000"
 preserveAspectRatio="xMidYMid meet">
<metadata>
Created by potrace 1.11, written by Peter Selinger 2001-2013
</metadata>
<g transform="translate(0.000000,480.000000) scale(0.100000,-0.100000)"
fill="#000000" stroke="none">
<path d="M0 2400 l0 -2400 2400 0 2400 0 0 2400 0 2400 -2400 0 -2400 0 0
-2400z m2018 1153 c-15 -2 -42 -2 -60 0 -18 2 -6 4 27 4 33 0 48 -2 33 -4z
m-130 -10 c-15 -2 -42 -2 -60 0 -18 2 -6 4 27 4 33 0 48 -2 33 -4z m-115 -11
c-6 -4 -13 -23 -16 -42 -4 -33 -4 -33 -5 8 -2 34 1 42 16 42 11 0 13 -3 5 -8z
m1065 -119 l-2 -128 -3 122 -4 122 -142 4 -142 3 148 2 147 2 -2 -127z m-791
-35 c-2 -29 -3 -6 -3 52 0 58 1 81 3 53 2 -29 2 -77 0 -105z m510 -150 c-1
-46 -3 -9 -3 82 0 91 2 128 3 83 2 -46 2 -120 0 -165z m-790 50 c-2 -29 -3 -6
-3 52 0 58 1 81 3 53 2 -29 2 -77 0 -105z m290 -140 c-2 -29 -3 -6 -3 52 0 58
1 81 3 53 2 -29 2 -77 0 -105z m790 -150 c-1 -46 -3 -11 -3 77 0 88 2 125 3
83 2 -42 2 -114 0 -160z m-1070 60 c-2 -29 -3 -8 -3 47 0 55 1 79 3 53 2 -26
2 -71 0 -100z m790 -200 c-1 -46 -3 -9 -3 82 0 91 2 128 3 83 2 -46 2 -120 0
-165z m-500 50 c-2 -29 -3 -6 -3 52 0 58 1 81 3 53 2 -29 2 -77 0 -105z m-280
-90 c-2 -29 -3 -6 -3 52 0 58 1 81 3 53 2 -29 2 -77 0 -105z m1070 -200 c-1
-46 -3 -11 -3 77 0 88 2 125 3 83 2 -42 2 -114 0 -160z m-780 60 c-2 -29 -3
-6 -3 52 0 58 1 81 3 53 2 -29 2 -77 0 -105z m-280 -90 c-2 -29 -3 -6 -3 52 0
58 1 81 3 53 2 -29 2 -77 0 -105z m780 -120 c-1 -46 -3 -9 -3 82 0 91 2 128 3
83 2 -46 2 -120 0 -165z m-490 -30 c-2 -29 -3 -6 -3 52 0 58 1 81 3 53 2 -29
2 -77 0 -105z m-280 -80 c-2 -29 -3 -6 -3 52 0 58 1 81 3 53 2 -29 2 -77 0
-105z m1060 -120 c-1 -46 -3 -11 -3 77 0 88 2 125 3 83 2 -42 2 -114 0 -160z
m-770 -40 c-2 -29 -3 -6 -3 52 0 58 1 81 3 53 2 -29 2 -77 0 -105z m490 -120
c-1 -46 -3 -9 -3 82 0 91 2 128 3 83 2 -46 2 -120 0 -165z m-770 50 c-2 -29
-3 -8 -3 47 0 55 1 79 3 53 2 -26 2 -71 0 -100z m290 -160 c-2 -29 -3 -6 -3
52 0 58 1 81 3 53 2 -29 2 -77 0 -105z m770 -110 c-1 -46 -3 -9 -3 82 0 91 2
128 3 83 2 -46 2 -120 0 -165z m-2129 225 c-21 -2 -57 -2 -80 0 -24 2 -7 4 37
4 44 0 63 -2 43 -4z m49 -15 c-3 -8 -6 -5 -6 6 -1 11 2 17 5 13 3 -3 4 -12 1
-19z m-234 5 c-29 -3 -43 -9 -46 -21 -3 -12 -5 -11 -6 6 -1 20 3 22 47 20 l47
-1 -42 -4z m244 -145 c-2 -24 -4 -7 -4 37 0 44 2 63 4 43 2 -21 2 -57 0 -80z
m1020 -40 c-2 -29 -3 -6 -3 52 0 58 1 81 3 53 2 -29 2 -77 0 -105z m-1300 10
c-2 -24 -4 -5 -4 42 0 47 2 66 4 43 2 -24 2 -62 0 -85z m2070 -200 c-1 -46 -3
-9 -3 82 0 91 2 128 3 83 2 -46 2 -120 0 -165z m-480 30 c-2 -29 -3 -6 -3 52
0 58 1 81 3 53 2 -29 2 -77 0 -105z m-1300 30 c-2 -24 -4 -7 -4 37 0 44 2 63
4 43 2 -21 2 -57 0 -80z m-280 -40 c-2 -24 -4 -7 -4 37 0 44 2 63 4 43 2 -21
2 -57 0 -80z m1303 12 l0 -80 -37 2 c-37 1 -37 1 -5 5 l32 4 0 75 c0 41 2 74
5 74 3 0 5 -36 5 -80z m1083 -193 c31 -4 31 -4 -5 -5 l-38 -2 2 98 2 97 3 -92
4 -92 32 -4z m-2055 30 l37 -4 -42 -1 -43 -2 2 73 2 72 3 -67 4 -67 37 -4z
m-321 -39 c-2 -24 -4 -5 -4 42 0 47 2 66 4 43 2 -24 2 -62 0 -85z m1191 115
c-16 -2 -40 -2 -55 0 -16 2 -3 4 27 4 30 0 43 -2 28 -4z m-105 -10 c-13 -2
-35 -2 -50 0 -16 2 -5 4 22 4 28 0 40 -2 28 -4z m494 -145 c-2 -29 -3 -6 -3
52 0 58 1 81 3 53 2 -29 2 -77 0 -105z m2151 95 l-2 -58 -3 52 c-4 47 -6 52
-31 56 -25 4 -24 4 6 6 l32 1 -2 -57z m-2755 40 c-13 -2 -35 -2 -50 0 -16 2
-5 4 22 4 28 0 40 -2 28 -4z m2650 0 c-18 -2 -48 -2 -65 0 -18 2 -4 4 32 4 36
0 50 -2 33 -4z m-2760 -10 c-13 -2 -35 -2 -50 0 -16 2 -5 4 22 4 28 0 40 -2
28 -4z m2620 0 c-18 -2 -48 -2 -65 0 -18 2 -4 4 32 4 36 0 50 -2 33 -4z
m-2725 -10 c-16 -2 -40 -2 -55 0 -16 2 -3 4 27 4 30 0 43 -2 28 -4z m2585 0
c-18 -2 -48 -2 -65 0 -18 2 -4 4 32 4 36 0 50 -2 33 -4z m-2690 -10 c-13 -2
-35 -2 -50 0 -16 2 -5 4 22 4 28 0 40 -2 28 -4z m2550 0 c-18 -2 -48 -2 -65 0
-18 2 -4 4 32 4 36 0 50 -2 33 -4z m-2660 -10 c-13 -2 -35 -2 -50 0 -16 2 -5
4 22 4 28 0 40 -2 28 -4z m2520 0 c-18 -2 -48 -2 -65 0 -18 2 -4 4 32 4 36 0
50 -2 33 -4z m-2630 -10 c-13 -2 -35 -2 -50 0 -16 2 -5 4 22 4 28 0 40 -2 28
-4z m2490 0 c-18 -2 -48 -2 -65 0 -18 2 -4 4 32 4 36 0 50 -2 33 -4z m-140
-10 c-18 -2 -48 -2 -65 0 -18 2 -4 4 32 4 36 0 50 -2 33 -4z m-140 -10 c-18
-2 -48 -2 -65 0 -18 2 -4 4 32 4 36 0 50 -2 33 -4z m-525 -296 l57 -3 -62 -2
-63 -2 2 153 2 152 3 -147 4 -147 57 -4z m385 286 c-18 -2 -48 -2 -65 0 -18 2
-4 4 32 4 36 0 50 -2 33 -4z m1233 -169 c-4 -10 -24 -13 -73 -12 l-68 2 68 3
67 4 2 62 2 62 3 -54 c2 -29 2 -60 -1 -67z m-3729 -26 c-2 -24 -4 -5 -4 42 0
47 2 66 4 43 2 -24 2 -62 0 -85z m1561 75 c-10 -2 -26 -2 -35 0 -10 3 -2 5 17
5 19 0 27 -2 18 -5z m-85 -10 c-13 -2 -35 -2 -50 0 -16 2 -5 4 22 4 28 0 40
-2 28 -4z m-105 -10 c-16 -2 -40 -2 -55 0 -16 2 -3 4 27 4 30 0 43 -2 28 -4z
m-105 -10 c-13 -2 -35 -2 -50 0 -16 2 -5 4 22 4 28 0 40 -2 28 -4z m-110 -10
c-13 -2 -35 -2 -50 0 -16 2 -5 4 22 4 28 0 40 -2 28 -4z m-105 -10 c-16 -2
-40 -2 -55 0 -16 2 -3 4 27 4 30 0 43 -2 28 -4z m-105 -10 c-13 -2 -35 -2 -50
0 -16 2 -5 4 22 4 28 0 40 -2 28 -4z m-110 -10 c-13 -2 -35 -2 -50 0 -16 2 -5
4 22 4 28 0 40 -2 28 -4z m2710 0 c-18 -2 -48 -2 -65 0 -18 2 -4 4 32 4 36 0
50 -2 33 -4z m-2815 -10 c-16 -2 -40 -2 -55 0 -16 2 -3 4 27 4 30 0 43 -2 28
-4z m2675 0 c-18 -2 -48 -2 -65 0 -18 2 -4 4 32 4 36 0 50 -2 33 -4z m-2780
-10 c-13 -2 -35 -2 -50 0 -16 2 -5 4 22 4 28 0 40 -2 28 -4z m2640 0 c-18 -2
-48 -2 -65 0 -18 2 -4 4 32 4 36 0 50 -2 33 -4z m-2750 -10 c-13 -2 -35 -2
-50 0 -16 2 -5 4 22 4 28 0 40 -2 28 -4z m2610 0 c-18 -2 -48 -2 -65 0 -18 2
-4 4 32 4 36 0 50 -2 33 -4z m-2715 -10 c-16 -2 -40 -2 -55 0 -16 2 -3 4 27 4
30 0 43 -2 28 -4z m2569 0 c-20 -2 -52 -2 -70 0 -17 2 0 4 38 4 39 0 53 -2 32
-4z m-2679 -10 c-16 -2 -40 -2 -55 0 -16 2 -3 4 27 4 30 0 43 -2 28 -4z m2539
0 c-20 -2 -52 -2 -70 0 -17 2 0 4 38 4 39 0 53 -2 32 -4z m-2644 -10 c-13 -2
-35 -2 -50 0 -16 2 -5 4 22 4 28 0 40 -2 28 -4z m2500 0 c-18 -2 -48 -2 -65 0
-18 2 -4 4 32 4 36 0 50 -2 33 -4z m-2615 -10 c-16 -2 -40 -2 -55 0 -16 2 -3
4 27 4 30 0 43 -2 28 -4z m2475 0 c-18 -2 -48 -2 -65 0 -18 2 -4 4 32 4 36 0
50 -2 33 -4z m-140 -10 c-18 -2 -48 -2 -65 0 -18 2 -4 4 32 4 36 0 50 -2 33
-4z m-140 -10 c-18 -2 -48 -2 -65 0 -18 2 -4 4 32 4 36 0 50 -2 33 -4z"/>
</g>
</svg>
